<svg width="422" height="375" viewBox="0 0 422 375" fill="none" xmlns="http://www.w3.org/2000/svg">
<g clip-path="url(#clip0)">
<rect width="422" height="375" fill="#F9D0E0"/>
<g filter="url(#filter0_d)">
<path d="M66.185 97.4688L77.3412 134.312L82.9194 133.469L90.7475 105.531L99.3256 134.312L104.904 133.469L115.31 97.375L120.372 95.4531L120.935 91.9844H102.982L102.513 95.5469L109.544 97.4688L102.701 122.031L101.716 116.828L94.8256 94.1406L88.31 94.9844L80.7631 121.75L79.6381 116.125L73.9662 97.375L80.2944 95.4531L80.7162 91.9844H61.2631L60.7944 95.5469L66.185 97.4688ZM137.337 82.8438C138.337 82.8438 139.275 82.5938 140.15 82.0938C141.056 81.5625 141.759 80.8594 142.259 79.9844C142.791 79.1094 143.056 78.1562 143.056 77.125C143.056 75.625 142.494 74.3594 141.369 73.3281C140.244 72.2969 138.9 71.7812 137.337 71.7812C135.837 71.7812 134.525 72.2969 133.4 73.3281C132.306 74.3281 131.759 75.5625 131.759 77.0312C131.759 78.0625 132.009 79.0312 132.509 79.9375C133.009 80.8125 133.681 81.5156 134.525 82.0469C135.4 82.5781 136.337 82.8438 137.337 82.8438ZM148.681 133L149.197 129.25L141.697 127.562V92.6875L140.525 91.5156L127.353 92.5938L126.744 96.1562L133.822 98.7344V127.562L126.744 129.297L126.181 133H148.681ZM173.709 134.406C176.771 134.406 179.631 133.859 182.287 132.766C184.974 131.641 187.256 130.094 189.131 128.125L188.146 125.641C186.615 126.453 185.271 127.047 184.115 127.422C182.959 127.797 181.943 128.031 181.068 128.125C180.193 128.188 179.006 128.219 177.506 128.219C174.756 128.219 172.412 127.438 170.474 125.875C168.568 124.281 167.115 122.25 166.115 119.781C165.115 117.312 164.552 114.766 164.427 112.141L187.115 111.859C187.302 111.047 187.474 110.016 187.631 108.766C187.787 107.484 187.865 106.484 187.865 105.766C187.865 102.578 187.302 99.875 186.177 97.6562C185.084 95.4062 183.584 93.7188 181.677 92.5938C179.771 91.4375 177.662 90.8594 175.349 90.8594C172.224 90.8594 169.177 91.75 166.209 93.5312C163.24 95.3125 160.802 97.875 158.896 101.219C157.021 104.562 156.084 108.469 156.084 112.938C156.084 117.469 156.912 121.359 158.568 124.609C160.224 127.859 162.396 130.312 165.084 131.969C167.802 133.594 170.677 134.406 173.709 134.406ZM173.052 95.4531C177.365 95.4531 179.521 98.3594 179.521 104.172C179.521 104.641 179.49 105.219 179.427 105.906C179.396 106.562 179.334 107.062 179.24 107.406L164.521 108.484C164.677 105.609 165.177 103.203 166.021 101.266C166.896 99.2969 167.959 97.8438 169.209 96.9062C170.459 95.9375 171.74 95.4531 173.052 95.4531ZM217.908 133L218.471 129.25L211.018 127.562V73.2344L209.846 72.1094L196.346 73.1406L195.783 76.7031L203.189 79.2344V127.562L196.018 129.297L195.502 133H217.908ZM245.654 133L246.217 129.25L238.764 127.562V73.7031L237.592 72.5312L224.092 73.6094L223.529 77.1719L230.936 79.6562V127.562L223.764 129.297L223.248 133H245.654ZM244.811 119.547C247.654 123.391 249.936 126.281 251.654 128.219C253.373 130.156 255.045 131.594 256.67 132.531C258.326 133.438 260.17 133.891 262.201 133.891C263.701 133.891 265.561 133.594 267.779 133L268.295 129.391L266.42 129.109C264.857 128.922 263.467 128.438 262.248 127.656C261.061 126.875 259.92 125.875 258.826 124.656C257.764 123.438 256.295 121.594 254.42 119.125C252.889 117.062 251.811 115.656 251.186 114.906L247.482 110.172L258.592 96.5781L265.576 94.6094L266.232 91.1406H246.264L245.795 94.7031L252.029 96.5781L239.889 111.812V112.75L244.811 119.547ZM285.072 82.8438C286.072 82.8438 287.01 82.5938 287.885 82.0938C288.791 81.5625 289.494 80.8594 289.994 79.9844C290.526 79.1094 290.791 78.1562 290.791 77.125C290.791 75.625 290.229 74.3594 289.104 73.3281C287.979 72.2969 286.635 71.7812 285.072 71.7812C283.572 71.7812 282.26 72.2969 281.135 73.3281C280.041 74.3281 279.494 75.5625 279.494 77.0312C279.494 78.0625 279.744 79.0312 280.244 79.9375C280.744 80.8125 281.416 81.5156 282.26 82.0469C283.135 82.5781 284.072 82.8438 285.072 82.8438ZM296.416 133L296.932 129.25L289.432 127.562V92.6875L288.26 91.5156L275.088 92.5938L274.479 96.1562L281.557 98.7344V127.562L274.479 129.297L273.916 133H296.416ZM321.444 134.406C324.506 134.406 327.366 133.859 330.022 132.766C332.709 131.641 334.991 130.094 336.866 128.125L335.881 125.641C334.35 126.453 333.006 127.047 331.85 127.422C330.694 127.797 329.678 128.031 328.803 128.125C327.928 128.188 326.741 128.219 325.241 128.219C322.491 128.219 320.147 127.438 318.209 125.875C316.303 124.281 314.85 122.25 313.85 119.781C312.85 117.312 312.287 114.766 312.162 112.141L334.85 111.859C335.037 111.047 335.209 110.016 335.366 108.766C335.522 107.484 335.6 106.484 335.6 105.766C335.6 102.578 335.037 99.875 333.912 97.6562C332.819 95.4062 331.319 93.7188 329.412 92.5938C327.506 91.4375 325.397 90.8594 323.084 90.8594C319.959 90.8594 316.912 91.75 313.944 93.5312C310.975 95.3125 308.537 97.875 306.631 101.219C304.756 104.562 303.819 108.469 303.819 112.938C303.819 117.469 304.647 121.359 306.303 124.609C307.959 127.859 310.131 130.312 312.819 131.969C315.537 133.594 318.412 134.406 321.444 134.406ZM320.787 95.4531C325.1 95.4531 327.256 98.3594 327.256 104.172C327.256 104.641 327.225 105.219 327.162 105.906C327.131 106.562 327.069 107.062 326.975 107.406L312.256 108.484C312.412 105.609 312.912 103.203 313.756 101.266C314.631 99.2969 315.694 97.8438 316.944 96.9062C318.194 95.9375 319.475 95.4531 320.787 95.4531ZM63.8881 214.266C67.5131 214.266 70.8256 213.344 73.8256 211.5C76.8256 209.656 79.185 207.062 80.9037 203.719C82.6537 200.375 83.5287 196.578 83.5287 192.328C83.5287 188.047 82.7787 184.281 81.2787 181.031C79.81 177.75 77.6694 175.203 74.8569 173.391C72.0756 171.578 68.7944 170.672 65.0131 170.672C61.4506 170.672 58.1069 171.562 54.9819 173.344C51.8881 175.125 49.3881 177.719 47.4819 181.125C45.5756 184.5 44.6225 188.469 44.6225 193.031C44.6225 197.094 45.3725 200.734 46.8725 203.953C48.4037 207.141 50.6069 209.656 53.4819 211.5C56.3881 213.344 59.8569 214.266 63.8881 214.266ZM63.0444 175.594C65.8256 175.594 68.1225 176.625 69.935 178.688C71.7787 180.719 73.1069 183.297 73.9194 186.422C74.7631 189.547 75.185 192.797 75.185 196.172C75.185 198.484 74.8256 200.672 74.1069 202.734C73.3881 204.797 72.2944 206.484 70.8256 207.797C69.3569 209.078 67.5756 209.719 65.4819 209.719C62.5756 209.719 60.185 208.766 58.31 206.859C56.435 204.953 55.0756 202.484 54.2319 199.453C53.3881 196.422 52.9662 193.172 52.9662 189.703C52.9662 187.141 53.3256 184.797 54.0444 182.672C54.7631 180.516 55.8725 178.797 57.3725 177.516C58.9037 176.234 60.7944 175.594 63.0444 175.594ZM96.8844 200.812C96.8531 205.688 97.7125 209.125 99.4625 211.125C101.244 213.094 103.712 214.078 106.869 214.078C109.494 214.078 111.9 213.469 114.087 212.25C116.275 211.031 118.103 209.344 119.572 207.188L118.587 204.656C118.587 204.688 118.212 204.938 117.462 205.406C116.744 205.875 115.884 206.312 114.884 206.719C113.884 207.094 112.869 207.281 111.837 207.281C110.181 207.281 108.853 207 107.853 206.438C106.853 205.875 106.119 204.922 105.65 203.578C105.181 202.234 104.947 200.391 104.947 198.047L105.087 177.328H118.025L118.447 173.203H105.181V162.047H102.697C101.009 164.359 99.1344 166.656 97.0719 168.938C95.0094 171.219 93.025 173.141 91.1187 174.703V177.234H97.0719L96.8844 200.812ZM129.412 177.469L140.568 214.312L146.146 213.469L153.974 185.531L162.552 214.312L168.131 213.469L178.537 177.375L183.599 175.453L184.162 171.984H166.209L165.74 175.547L172.771 177.469L165.927 202.031L164.943 196.828L158.052 174.141L151.537 174.984L143.99 201.75L142.865 196.125L137.193 177.375L143.521 175.453L143.943 171.984H124.49L124.021 175.547L129.412 177.469ZM199.064 214.125C202.439 214.125 205.189 213.359 207.314 211.828C209.471 210.266 211.002 208.609 211.908 206.859H212.424V207.562C212.424 208.594 212.658 209.594 213.127 210.562C213.627 211.5 214.424 212.281 215.518 212.906C216.611 213.531 218.002 213.844 219.689 213.844C221.002 213.844 222.408 213.672 223.908 213.328C224.877 213.141 225.596 213.016 226.064 212.953L226.674 208.922L224.33 208.5C222.861 208.25 221.752 207.922 221.002 207.516C220.283 207.078 219.783 206.469 219.502 205.688C219.221 204.875 219.08 203.719 219.08 202.219V185.203C219.08 180.203 218.174 176.562 216.361 174.281C214.58 171.969 211.627 170.812 207.502 170.812C205.314 170.812 202.955 171.266 200.424 172.172C197.893 173.078 195.768 174.281 194.049 175.781C192.33 177.25 191.471 178.797 191.471 180.422C191.471 182.453 192.096 183.766 193.346 184.359C194.596 184.953 196.143 185.25 197.986 185.25C198.268 182.094 198.502 179.922 198.689 178.734C198.908 177.547 199.346 176.656 200.002 176.062C200.658 175.469 201.721 175.172 203.189 175.172C206.158 175.172 208.283 176.359 209.564 178.734C210.846 181.078 211.486 184.062 211.486 187.688V190.266C206.611 190.609 202.549 191.516 199.299 192.984C196.08 194.422 193.705 196.203 192.174 198.328C190.643 200.453 189.877 202.719 189.877 205.125C189.877 206.969 190.283 208.578 191.096 209.953C191.939 211.297 193.064 212.328 194.471 213.047C195.877 213.766 197.408 214.125 199.064 214.125ZM211.486 204.188C210.549 205.219 209.33 206.172 207.83 207.047C206.33 207.922 204.83 208.359 203.33 208.359C202.236 208.359 201.283 208.078 200.471 207.516C199.689 206.953 199.096 206.25 198.689 205.406C198.283 204.562 198.08 203.734 198.08 202.922C198.08 200.516 199.096 198.5 201.127 196.875C203.158 195.219 206.611 193.906 211.486 192.938V204.188ZM258.639 208.922L247.717 207.328V189.375C248.029 187.156 248.639 185.281 249.545 183.75C250.482 182.219 251.514 181.078 252.639 180.328C253.764 179.547 254.795 179.156 255.732 179.156C256.639 179.156 257.592 179.328 258.592 179.672C259.592 179.984 260.545 180.422 261.451 180.984C263.232 179.484 264.123 177.75 264.123 175.781C264.123 174.375 263.639 173.156 262.67 172.125C261.701 171.062 260.451 170.531 258.92 170.531C257.514 170.531 256.092 171.016 254.654 171.984C253.217 172.922 251.857 174.344 250.576 176.25C249.295 178.156 248.248 180.469 247.436 183.188H246.545L247.482 172.406L246.404 171.281L232.951 173.016L232.295 176.578L239.936 178.875V207.656L232.764 209.531L232.295 213H258.17L258.639 208.922ZM289.619 214.406C292.526 214.406 295.338 213.844 298.057 212.719C300.807 211.562 302.838 210.203 304.151 208.641L302.979 205.922C301.572 206.828 300.166 207.531 298.76 208.031C297.354 208.531 295.604 208.781 293.51 208.781C290.479 208.781 287.916 207.75 285.822 205.688C283.729 203.625 282.166 201.078 281.135 198.047C280.104 195.016 279.588 192.078 279.588 189.234C279.588 186.422 279.963 183.969 280.713 181.875C281.494 179.75 282.572 178.109 283.947 176.953C285.354 175.797 286.979 175.219 288.822 175.219C290.635 175.219 292.104 175.953 293.229 177.422C294.385 178.859 295.432 180.688 296.369 182.906C298.276 182.781 299.744 182.281 300.776 181.406C301.807 180.531 302.322 179.391 302.322 177.984C302.322 176.703 301.901 175.516 301.057 174.422C300.244 173.328 298.994 172.453 297.307 171.797C295.619 171.141 293.526 170.812 291.026 170.812C287.588 170.812 284.338 171.766 281.276 173.672C278.244 175.547 275.791 178.219 273.916 181.688C272.041 185.125 271.104 189.078 271.104 193.547C271.104 197.297 271.869 200.766 273.401 203.953C274.932 207.141 277.104 209.688 279.916 211.594C282.729 213.469 285.963 214.406 289.619 214.406ZM321.959 162.844C322.959 162.844 323.897 162.594 324.772 162.094C325.678 161.562 326.381 160.859 326.881 159.984C327.413 159.109 327.678 158.156 327.678 157.125C327.678 155.625 327.116 154.359 325.991 153.328C324.866 152.297 323.522 151.781 321.959 151.781C320.459 151.781 319.147 152.297 318.022 153.328C316.928 154.328 316.381 155.562 316.381 157.031C316.381 158.062 316.631 159.031 317.131 159.938C317.631 160.812 318.303 161.516 319.147 162.047C320.022 162.578 320.959 162.844 321.959 162.844ZM333.303 213L333.819 209.25L326.319 207.562V172.688L325.147 171.516L311.975 172.594L311.366 176.156L318.444 178.734V207.562L311.366 209.297L310.803 213H333.303ZM358.331 214.406C361.393 214.406 364.253 213.859 366.909 212.766C369.596 211.641 371.878 210.094 373.753 208.125L372.768 205.641C371.237 206.453 369.893 207.047 368.737 207.422C367.581 207.797 366.565 208.031 365.69 208.125C364.815 208.188 363.628 208.219 362.128 208.219C359.378 208.219 357.034 207.438 355.096 205.875C353.19 204.281 351.737 202.25 350.737 199.781C349.737 197.312 349.174 194.766 349.049 192.141L371.737 191.859C371.924 191.047 372.096 190.016 372.253 188.766C372.409 187.484 372.487 186.484 372.487 185.766C372.487 182.578 371.924 179.875 370.799 177.656C369.706 175.406 368.206 173.719 366.299 172.594C364.393 171.438 362.284 170.859 359.971 170.859C356.846 170.859 353.799 171.75 350.831 173.531C347.862 175.312 345.424 177.875 343.518 181.219C341.643 184.562 340.706 188.469 340.706 192.938C340.706 197.469 341.534 201.359 343.19 204.609C344.846 207.859 347.018 210.312 349.706 211.969C352.424 213.594 355.299 214.406 358.331 214.406ZM357.674 175.453C361.987 175.453 364.143 178.359 364.143 184.172C364.143 184.641 364.112 185.219 364.049 185.906C364.018 186.562 363.956 187.062 363.862 187.406L349.143 188.484C349.299 185.609 349.799 183.203 350.643 181.266C351.518 179.297 352.581 177.844 353.831 176.906C355.081 175.938 356.362 175.453 357.674 175.453Z" fill="#E7205F"/>
</g>
<g filter="url(#filter1_d)">
<path d="M56.3359 286.781V292.688L61.0234 293.883L60.625 296.695H46.8672L47.1484 293.93L50.7578 292.664V271.969L47.1953 270.492L47.6406 267.609L55.9141 266.859L56.6172 267.516L56.1953 270L56.4297 270.07C57.1328 269.07 58.0234 268.219 59.1016 267.516C60.1953 266.797 61.4453 266.438 62.8516 266.438C64.2422 266.438 65.5 266.805 66.625 267.539C67.7656 268.258 68.6719 269.391 69.3438 270.938C70.0156 272.484 70.3516 274.438 70.3516 276.797C70.3516 279.203 69.8672 281.289 68.8984 283.055C67.9453 284.805 66.625 286.141 64.9375 287.062C63.2656 287.984 61.3828 288.445 59.2891 288.445C57.8984 288.445 56.9219 288.344 56.3594 288.141L56.3359 286.781ZM60.6016 271.453C59.2578 271.453 57.8359 272.062 56.3359 273.281V284.086C56.9141 284.352 57.4766 284.547 58.0234 284.672C58.5703 284.781 59.2109 284.836 59.9453 284.836C61.3359 284.836 62.4219 284.297 63.2031 283.219C64 282.125 64.3984 280.609 64.3984 278.672C64.3984 276.359 64.0781 274.578 63.4375 273.328C62.8125 272.078 61.8672 271.453 60.6016 271.453ZM87.5312 284.766L82 283.641V276.703C82.2656 275.516 82.7109 274.547 83.3359 273.797C83.9766 273.047 84.7266 272.672 85.5859 272.672C86.4766 272.672 87.4609 273.016 88.5391 273.703C89.2109 273.141 89.7344 272.539 90.1094 271.898C90.4844 271.242 90.6719 270.5 90.6719 269.672C90.6719 268.766 90.3672 268.008 89.7578 267.398C89.1641 266.789 88.3594 266.484 87.3438 266.484C86.1719 266.484 85.0781 266.945 84.0625 267.867C83.0625 268.773 82.2734 270.156 81.6953 272.016L81.25 271.898L81.6953 267.562L80.9688 266.812L73.3281 267.586L72.8594 270.445L76.4219 271.922V283.969L72.9062 285.234L72.5312 287.977H87.25L87.5312 284.766ZM102.016 288.633C104.047 288.633 105.867 288.156 107.477 287.203C109.086 286.234 110.344 284.875 111.25 283.125C112.156 281.375 112.609 279.359 112.609 277.078C112.609 274.797 112.219 272.852 111.438 271.242C110.656 269.617 109.508 268.383 107.992 267.539C106.492 266.695 104.68 266.273 102.555 266.273C100.758 266.273 99.0234 266.727 97.3516 267.633C95.6797 268.539 94.3125 269.852 93.25 271.57C92.1875 273.273 91.6562 275.266 91.6562 277.547C91.6562 279.625 92.0156 281.5 92.7344 283.172C93.4531 284.828 94.5859 286.156 96.1328 287.156C97.6953 288.141 99.6562 288.633 102.016 288.633ZM101.617 269.953C103.43 269.953 104.703 270.891 105.438 272.766C106.188 274.641 106.562 276.922 106.562 279.609C106.562 281.359 106.25 282.734 105.625 283.734C105 284.719 104.055 285.211 102.789 285.211C101.008 285.211 99.7031 284.383 98.875 282.727C98.0625 281.055 97.6562 278.812 97.6562 276C97.6562 274.141 97.9688 272.672 98.5938 271.594C99.2344 270.5 100.242 269.953 101.617 269.953ZM127.445 285.141L124.305 283.969V273.656C124.836 273.125 125.43 272.727 126.086 272.461C126.742 272.18 127.43 272.039 128.148 272.039C129.102 272.039 129.852 272.391 130.398 273.094C130.961 273.781 131.242 274.789 131.242 276.117V283.969L129.719 285.281L129.602 288H139.68L140.078 285.141L136.82 283.969V273.75C137.398 273.203 137.984 272.781 138.578 272.484C139.172 272.188 139.836 272.039 140.57 272.039C141.57 272.039 142.336 272.391 142.867 273.094C143.398 273.797 143.664 274.805 143.664 276.117V283.969L142.188 285.281L142.117 288H152.195L152.617 285.141L149.266 283.969V273.352C149.266 271.133 148.781 269.477 147.812 268.383C146.859 267.273 145.461 266.719 143.617 266.719C141.242 266.719 138.93 268 136.68 270.562L136.352 270.516C135.992 269.156 135.352 268.172 134.43 267.562C133.523 266.938 132.43 266.625 131.148 266.625C128.711 266.625 126.414 267.844 124.258 270.281L123.977 270.234L124.445 267.562L123.789 266.859L115.492 267.68L115.07 270.516L118.609 272.062V283.969L115.188 285.281L114.883 288H126.977L127.445 285.141ZM165.391 288.633C167.422 288.633 169.242 288.156 170.852 287.203C172.461 286.234 173.719 284.875 174.625 283.125C175.531 281.375 175.984 279.359 175.984 277.078C175.984 274.797 175.594 272.852 174.812 271.242C174.031 269.617 172.883 268.383 171.367 267.539C169.867 266.695 168.055 266.273 165.93 266.273C164.133 266.273 162.398 266.727 160.727 267.633C159.055 268.539 157.688 269.852 156.625 271.57C155.562 273.273 155.031 275.266 155.031 277.547C155.031 279.625 155.391 281.5 156.109 283.172C156.828 284.828 157.961 286.156 159.508 287.156C161.07 288.141 163.031 288.633 165.391 288.633ZM164.992 269.953C166.805 269.953 168.078 270.891 168.812 272.766C169.562 274.641 169.938 276.922 169.938 279.609C169.938 281.359 169.625 282.734 169 283.734C168.375 284.719 167.43 285.211 166.164 285.211C164.383 285.211 163.078 284.383 162.25 282.727C161.438 281.055 161.031 278.812 161.031 276C161.031 274.141 161.344 272.672 161.969 271.594C162.609 270.5 163.617 269.953 164.992 269.953ZM188.312 288.703C189.453 288.703 190.562 288.531 191.641 288.188C192.719 287.859 193.664 287.406 194.477 286.828C195.305 286.25 195.922 285.625 196.328 284.953L195.578 283.055C194.734 283.57 193.93 283.961 193.164 284.227C192.398 284.477 191.453 284.602 190.328 284.602C188.984 284.602 187.836 284.172 186.883 283.312C185.945 282.438 185.234 281.344 184.75 280.031C184.281 278.703 184.047 277.367 184.047 276.023C184.047 273.867 184.375 272.234 185.031 271.125C185.688 270.016 186.625 269.461 187.844 269.461C188.656 269.461 189.352 269.836 189.93 270.586C190.508 271.32 191.07 272.469 191.617 274.031C192.805 273.922 193.742 273.594 194.43 273.047C195.133 272.5 195.484 271.734 195.484 270.75C195.484 269.891 195.242 269.109 194.758 268.406C194.273 267.703 193.562 267.148 192.625 266.742C191.688 266.32 190.578 266.109 189.297 266.109C187.469 266.109 185.68 266.602 183.93 267.586C182.195 268.555 180.773 269.953 179.664 271.781C178.57 273.609 178.023 275.734 178.023 278.156C178.023 280.203 178.406 282.023 179.172 283.617C179.938 285.195 181.086 286.438 182.617 287.344C184.164 288.25 186.062 288.703 188.312 288.703ZM205.516 264.281C206.422 264.281 207.195 264.125 207.836 263.812C208.477 263.5 208.961 263.078 209.289 262.547C209.617 262.016 209.781 261.438 209.781 260.812C209.781 260.203 209.609 259.648 209.266 259.148C208.938 258.633 208.453 258.227 207.812 257.93C207.172 257.633 206.422 257.484 205.562 257.484C204.719 257.484 203.977 257.633 203.336 257.93C202.695 258.211 202.203 258.609 201.859 259.125C201.516 259.625 201.344 260.18 201.344 260.789C201.344 261.773 201.695 262.602 202.398 263.273C203.117 263.945 204.156 264.281 205.516 264.281ZM200.125 296.555C201.734 295.836 203.156 295 204.391 294.047C205.641 293.109 206.68 291.852 207.508 290.273C208.336 288.695 208.75 286.766 208.75 284.484V267.703L207.766 266.789L200.219 267.305L199.609 270.375L203.078 272.344V283.43C203.078 285.383 202.805 287.023 202.258 288.352C201.727 289.695 201.078 290.758 200.312 291.539C199.562 292.32 198.617 293.125 197.477 293.953L199 296.953L200.125 296.555ZM221.172 288.727C222.688 288.727 224.188 288.469 225.672 287.953C227.156 287.438 228.375 286.688 229.328 285.703L228.859 283.055C227.938 283.539 227.039 283.859 226.164 284.016C225.305 284.156 224.352 284.227 223.305 284.227C221.539 284.227 220.203 283.688 219.297 282.609C218.391 281.531 217.891 280.156 217.797 278.484L228.367 278.25C228.461 277.828 228.555 277.172 228.648 276.281C228.758 275.391 228.812 274.758 228.812 274.383C228.812 272.758 228.531 271.336 227.969 270.117C227.422 268.898 226.641 267.961 225.625 267.305C224.609 266.648 223.43 266.32 222.086 266.32C220.398 266.32 218.766 266.812 217.188 267.797C215.625 268.766 214.344 270.133 213.344 271.898C212.359 273.664 211.867 275.68 211.867 277.945C211.867 280.242 212.281 282.203 213.109 283.828C213.938 285.453 215.055 286.68 216.461 287.508C217.867 288.32 219.438 288.727 221.172 288.727ZM220.773 270.234C221.664 270.234 222.32 270.57 222.742 271.242C223.164 271.898 223.375 272.789 223.375 273.914C223.375 274.133 223.359 274.414 223.328 274.758C223.312 275.102 223.281 275.344 223.234 275.484L217.727 276.023C217.758 274.836 217.914 273.805 218.195 272.93C218.477 272.055 218.844 271.391 219.297 270.938C219.75 270.469 220.242 270.234 220.773 270.234ZM250.773 288.469C252.242 288.469 253.461 288.156 254.43 287.531C255.414 286.906 256.289 286.062 257.055 285L257.312 285.047L257.383 285.281C257.586 286.297 258.023 287.094 258.695 287.672C259.383 288.25 260.312 288.539 261.484 288.539C262.344 288.539 263.078 288.469 263.688 288.328C264.312 288.188 265.07 287.953 265.961 287.625L266.383 284.672L265.539 284.438C264.742 284.203 264.148 283.992 263.758 283.805C263.383 283.602 263.102 283.297 262.914 282.891C262.727 282.484 262.633 281.883 262.633 281.086V258.422L261.695 257.484L253.867 258.094L253.398 260.883L257.219 262.711V265.266L257.477 267.609H257.336C256.992 267.375 256.484 267.18 255.812 267.023C255.156 266.852 254.547 266.766 253.984 266.766C251.922 266.766 250.062 267.336 248.406 268.477C246.766 269.602 245.477 271.109 244.539 273C243.617 274.875 243.156 276.883 243.156 279.023C243.156 280.883 243.469 282.531 244.094 283.969C244.719 285.391 245.609 286.5 246.766 287.297C247.922 288.078 249.258 288.469 250.773 288.469ZM253.07 270.398C253.711 270.398 254.398 270.625 255.133 271.078C255.883 271.531 256.555 272.188 257.148 273.047V282.281C256.633 282.719 256.039 283.086 255.367 283.383C254.695 283.664 254.039 283.805 253.398 283.805C252.539 283.805 251.789 283.531 251.148 282.984C250.523 282.422 250.039 281.641 249.695 280.641C249.352 279.641 249.18 278.469 249.18 277.125C249.18 275.234 249.508 273.641 250.164 272.344C250.82 271.047 251.789 270.398 253.07 270.398ZM279.016 288.633C281.047 288.633 282.867 288.156 284.477 287.203C286.086 286.234 287.344 284.875 288.25 283.125C289.156 281.375 289.609 279.359 289.609 277.078C289.609 274.797 289.219 272.852 288.438 271.242C287.656 269.617 286.508 268.383 284.992 267.539C283.492 266.695 281.68 266.273 279.555 266.273C277.758 266.273 276.023 266.727 274.352 267.633C272.68 268.539 271.312 269.852 270.25 271.57C269.188 273.273 268.656 275.266 268.656 277.547C268.656 279.625 269.016 281.5 269.734 283.172C270.453 284.828 271.586 286.156 273.133 287.156C274.695 288.141 276.656 288.633 279.016 288.633ZM278.617 269.953C280.43 269.953 281.703 270.891 282.438 272.766C283.188 274.641 283.562 276.922 283.562 279.609C283.562 281.359 283.25 282.734 282.625 283.734C282 284.719 281.055 285.211 279.789 285.211C278.008 285.211 276.703 284.383 275.875 282.727C275.062 281.055 274.656 278.812 274.656 276C274.656 274.141 274.969 272.672 275.594 271.594C276.234 270.5 277.242 269.953 278.617 269.953ZM306.086 270.984L308.148 265.688H318.461L306.297 288.047L313.375 288.773L323.781 262.359V260.273H304.164L303.719 270.516L306.086 270.984ZM332.008 288.891C334.008 288.891 335.93 288.477 337.773 287.648C339.617 286.82 341.109 285.68 342.25 284.227C343.391 282.773 343.961 281.156 343.961 279.375C343.961 277.688 343.562 276.164 342.766 274.805C341.984 273.43 340.711 272.32 338.945 271.477C337.195 270.617 334.922 270.141 332.125 270.047L332.688 266.016L341.875 265.688L342.695 259.922L330.766 260.625L327.93 274.875C330.133 274.953 331.992 275.289 333.508 275.883C335.039 276.477 336.18 277.273 336.93 278.273C337.695 279.273 338.078 280.414 338.078 281.695C338.078 282.586 337.875 283.359 337.469 284.016C337.078 284.672 336.547 285.172 335.875 285.516C335.203 285.859 334.469 286.031 333.672 286.031C332.312 286.031 331.305 285.625 330.648 284.812L329.922 279.094L327.156 278.438L325.938 287.062C327.359 288.281 329.383 288.891 332.008 288.891ZM364.891 274.148L354.766 288.609L348.25 287.719L359.547 274.219L368.992 261.656L358.844 261.727C359.578 262.367 360.109 263.203 360.438 264.234C360.781 265.266 360.953 266.18 360.953 266.977C360.953 268.273 360.586 269.5 359.852 270.656C359.117 271.797 358.18 272.711 357.039 273.398C355.898 274.07 354.773 274.406 353.664 274.406C352.289 274.406 351.031 274.102 349.891 273.492C348.766 272.883 347.867 272.016 347.195 270.891C346.523 269.766 346.188 268.461 346.188 266.977C346.188 265.82 346.555 264.672 347.289 263.531C348.023 262.391 348.961 261.461 350.102 260.742C351.258 260.008 352.406 259.641 353.547 259.641C353.75 259.641 353.891 259.648 353.969 259.664C354.047 259.68 354.109 259.695 354.156 259.711L354.391 261.891C354.016 261.766 353.758 261.703 353.617 261.703C352.945 261.703 352.461 262.203 352.164 263.203C351.867 264.188 351.719 265.445 351.719 266.977C351.719 268.586 351.859 269.867 352.141 270.82C352.422 271.773 352.93 272.25 353.664 272.25C354.383 272.25 354.883 271.773 355.164 270.82C355.461 269.867 355.609 268.586 355.609 266.977C355.609 264.07 355.422 261.68 355.047 259.805L370.469 259.688L375.953 259.734V260.953L364.891 274.148ZM371.172 274.172C372.438 274.172 373.625 274.5 374.734 275.156C375.844 275.812 376.727 276.711 377.383 277.852C378.055 278.977 378.391 280.219 378.391 281.578C378.391 282.844 378.023 284.039 377.289 285.164C376.57 286.273 375.648 287.164 374.523 287.836C373.414 288.508 372.312 288.844 371.219 288.844C369.875 288.844 368.625 288.539 367.469 287.93C366.312 287.32 365.383 286.461 364.68 285.352C363.977 284.242 363.625 282.969 363.625 281.531C363.625 280.266 364.008 279.07 364.773 277.945C365.539 276.805 366.508 275.891 367.68 275.203C368.867 274.516 370.031 274.172 371.172 274.172ZM371.219 286.594C371.922 286.594 372.398 286.156 372.648 285.281C372.914 284.406 373.047 283.172 373.047 281.578C373.047 280.047 372.891 278.766 372.578 277.734C372.266 276.703 371.797 276.188 371.172 276.188C369.844 276.188 369.18 278 369.18 281.625C369.18 284.938 369.859 286.594 371.219 286.594Z" fill="white"/>
</g>
</g>
<defs>
<filter id="filter0_d" x="44.6225" y="71.7812" width="337.13" height="150.625" filterUnits="userSpaceOnUse" color-interpolation-filters="sRGB">
<feFlood flood-opacity="0" result="BackgroundImageFix"/>
<feColorMatrix in="SourceAlpha" type="matrix" values="0 0 0 0 0 0 0 0 0 0 0 0 0 0 0 0 0 0 127 0"/>
<feOffset dx="4" dy="4"/>
<feGaussianBlur stdDeviation="2"/>
<feColorMatrix type="matrix" values="0 0 0 0 1 0 0 0 0 1 0 0 0 0 1 0 0 0 1 0"/>
<feBlend mode="normal" in2="BackgroundImageFix" result="effect1_dropShadow"/>
<feBlend mode="normal" in="SourceGraphic" in2="effect1_dropShadow" result="shape"/>
</filter>
<filter id="filter1_d" x="42.8672" y="257.484" width="339.523" height="47.4688" filterUnits="userSpaceOnUse" color-interpolation-filters="sRGB">
<feFlood flood-opacity="0" result="BackgroundImageFix"/>
<feColorMatrix in="SourceAlpha" type="matrix" values="0 0 0 0 0 0 0 0 0 0 0 0 0 0 0 0 0 0 127 0"/>
<feOffset dy="4"/>
<feGaussianBlur stdDeviation="2"/>
<feColorMatrix type="matrix" values="0 0 0 0 0 0 0 0 0 0 0 0 0 0 0 0 0 0 0.25 0"/>
<feBlend mode="normal" in2="BackgroundImageFix" result="effect1_dropShadow"/>
<feBlend mode="normal" in="SourceGraphic" in2="effect1_dropShadow" result="shape"/>
</filter>
<clipPath id="clip0">
<rect width="422" height="375" fill="white"/>
</clipPath>
</defs>
</svg>
